<svg xmlns="http://www.w3.org/2000/svg" version="1.1" xmlns:xlink="http://www.w3.org/1999/xlink" xmlns:svgjs="http://svgjs.com/svgjs" width="400" height="400" preserveAspectRatio="none" viewBox="0 0 400 400"><g mask="url(&quot;#SvgjsMask1012&quot;)" fill="none"><rect width="400" height="400" x="0" y="0" fill="#0e2a47"></rect><path d="M200 500.02C284.8 503.52 378.19 498.15 436.47 436.47 493.83 375.75 492.94 282.99 483.42 200 475.09 127.44 438.75 64.54 387.78 12.22 335.97-40.99 273.78-82.57 200-91.01 116.53-100.53 23.98-94.85-36.13-36.13-96.65 23-101.31 115.48-97.87 200-94.61 280.34-74.38 360.68-17.74 417.74 39.08 474.96 119.42 496.68 200 500.02" fill="rgba(17, 17, 17, 1)"></path><path d="M200 394.13C254.87 396.39 315.3 392.92 353.01 353.01 390.12 313.72 389.55 253.7 383.39 200 378 153.05 354.48 112.35 321.51 78.49 287.98 44.06 247.74 17.16 200 11.7 145.99 5.54 86.11 9.22 47.21 47.21 8.05 85.47 5.04 145.31 7.26 200 9.37 251.99 22.46 303.97 59.11 340.89 95.87 377.91 147.86 391.97 200 394.13" fill="rgba(242, 242, 242, 0.9490196078431372)"></path><path d="M200 288.24C224.94 289.27 252.41 287.69 269.55 269.55 286.42 251.69 286.16 224.41 283.36 200 280.91 178.66 270.22 160.16 255.23 144.77 239.99 129.12 221.7 116.89 200 114.41 175.45 111.61 148.23 113.28 130.55 130.55 112.75 147.94 111.38 175.14 112.39 200 113.35 223.63 119.3 247.26 135.96 264.04 152.67 280.87 176.3 287.26 200 288.24" fill="rgba(9, 84, 7, 1)"></path></g><defs><mask id="SvgjsMask1012"><rect width="400" height="400" fill="#ffffff"></rect></mask></defs></svg>